<svg xmlns="http://www.w3.org/2000/svg" xmlns:xlink="http://www.w3.org/1999/xlink" width="181" zoomAndPan="magnify" viewBox="0 0 135.75 135.000003" height="180" preserveAspectRatio="xMidYMid meet" version="1.0"><defs><clipPath id="70b26c12cd"><path d="M 37.992188 37.328125 L 97.976562 37.328125 L 97.976562 96.769531 L 37.992188 96.769531 Z M 37.992188 37.328125 " clip-rule="nonzero"/></clipPath><clipPath id="cf87da7335"><path d="M 73 43.109375 L 91.480469 43.109375 L 91.480469 63 L 73 63 Z M 73 43.109375 " clip-rule="nonzero"/></clipPath><clipPath id="70930d6a92"><path d="M 44.492188 74 L 62 74 L 62 90.84375 L 44.492188 90.84375 Z M 44.492188 74 " clip-rule="nonzero"/></clipPath><clipPath id="afba80e861"><path d="M 44.492188 43.109375 L 91.480469 43.109375 L 91.480469 90.84375 L 44.492188 90.84375 Z M 44.492188 43.109375 " clip-rule="nonzero"/></clipPath></defs><g clip-path="url(#70b26c12cd)"><path fill="#4f46e5" d="M 37.992188 37.328125 L 98.289062 37.328125 L 98.289062 96.890625 L 37.992188 96.890625 Z M 37.992188 37.328125 " fill-opacity="1" fill-rule="nonzero"/></g><g clip-path="url(#cf87da7335)"><path fill="#ff702a" d="M 81.878906 59.492188 C 81.679688 59.691406 81.339844 59.671875 81.117188 59.449219 L 80.386719 58.714844 C 80.164062 58.492188 80.144531 58.148438 80.34375 57.949219 L 87.378906 50.894531 C 87.574219 50.695312 87.917969 50.714844 88.136719 50.941406 L 88.871094 51.671875 C 89.09375 51.898438 89.113281 52.238281 88.914062 52.4375 Z M 79.652344 57.253906 C 79.453125 57.453125 79.113281 57.433594 78.890625 57.207031 L 78.15625 56.476562 C 77.933594 56.253906 77.914062 55.910156 78.113281 55.710938 L 85.148438 48.65625 C 85.34375 48.457031 85.6875 48.476562 85.910156 48.703125 L 86.640625 49.433594 C 86.863281 49.660156 86.882812 50 86.6875 50.199219 Z M 77.34375 54.941406 C 77.144531 55.136719 76.804688 55.117188 76.582031 54.894531 L 75.851562 54.160156 C 75.628906 53.9375 75.609375 53.59375 75.808594 53.394531 L 82.84375 46.339844 C 83.039062 46.144531 83.378906 46.160156 83.601562 46.386719 L 84.335938 47.117188 C 84.558594 47.34375 84.574219 47.6875 84.378906 47.882812 Z M 91.285156 51.429688 L 83.847656 43.960938 C 83.648438 43.765625 83.328125 43.761719 83.132812 43.960938 L 73.4375 53.683594 C 73.238281 53.882812 73.238281 54.207031 73.4375 54.402344 L 76.695312 57.675781 C 76.695312 57.675781 77.34375 57.550781 77.582031 57.785156 C 77.816406 58.023438 77.613281 58.601562 77.613281 58.601562 L 80.875 61.871094 C 81.070312 62.070312 81.394531 62.070312 81.589844 61.871094 L 91.285156 52.148438 C 91.484375 51.949219 91.484375 51.628906 91.285156 51.429688 " fill-opacity="1" fill-rule="nonzero"/></g><path fill="#ff702a" d="M 76.695312 57.675781 L 59.773438 74.644531 L 60.695312 75.566406 L 77.613281 58.601562 L 76.695312 57.675781 " fill-opacity="1" fill-rule="nonzero"/><path fill="#ff702a" d="M 77.582031 57.785156 C 77.34375 57.550781 76.695312 57.675781 76.695312 57.675781 L 77.613281 58.601562 C 77.613281 58.601562 77.816406 58.023438 77.582031 57.785156 " fill-opacity="1" fill-rule="nonzero"/><path fill="#ff702a" d="M 77.582031 57.785156 C 77.34375 57.550781 76.695312 57.675781 76.695312 57.675781 L 77.613281 58.601562 C 77.613281 58.601562 77.816406 58.023438 77.582031 57.785156 " fill-opacity="1" fill-rule="nonzero"/><g clip-path="url(#70930d6a92)"><path fill="#ff702a" d="M 60.933594 75.808594 L 59.535156 74.402344 C 59.335938 74.207031 59.019531 74.207031 58.816406 74.402344 L 44.75 88.511719 C 44.550781 88.710938 44.550781 89.035156 44.75 89.230469 L 46.148438 90.636719 C 46.347656 90.835938 46.667969 90.835938 46.867188 90.636719 L 60.933594 76.527344 C 61.132812 76.328125 61.132812 76.007812 60.933594 75.808594 " fill-opacity="1" fill-rule="nonzero"/></g><g clip-path="url(#afba80e861)"><path fill="#ff702a" d="M 57.320312 51.074219 L 47.421875 43.101562 L 53.160156 49.769531 C 54.605469 51.21875 55.425781 52.746094 54.648438 53.527344 C 53.867188 54.304688 52.324219 53.503906 50.878906 52.054688 L 44.503906 46.027344 L 52.199219 56.207031 C 54.0625 58.074219 56.507812 58.714844 58.023438 57.84375 L 74.921875 74.8125 L 74.683594 75.054688 C 74.484375 75.253906 74.484375 75.574219 74.683594 75.773438 L 88.742188 89.894531 C 88.9375 90.089844 89.261719 90.089844 89.457031 89.894531 L 90.859375 88.488281 C 91.054688 88.289062 91.054688 87.96875 90.859375 87.769531 L 76.800781 73.652344 C 76.601562 73.453125 76.28125 73.453125 76.082031 73.648438 L 75.84375 73.890625 L 58.945312 56.917969 C 59.820312 55.398438 59.179688 52.941406 57.320312 51.074219 " fill-opacity="1" fill-rule="nonzero"/></g></svg>