<svg xmlns="http://www.w3.org/2000/svg" xmlns:xlink="http://www.w3.org/1999/xlink" width="438" zoomAndPan="magnify" viewBox="0 0 328.5 201.749994" height="269" preserveAspectRatio="xMidYMid meet" version="1.0"><defs><g/><clipPath id="a74b622544"><path d="M 168 38 L 183.96875 38 L 183.96875 54 L 168 54 Z M 168 38 " clip-rule="nonzero"/></clipPath><clipPath id="04f492965f"><path d="M 145 63 L 159 63 L 159 77.433594 L 145 77.433594 Z M 145 63 " clip-rule="nonzero"/></clipPath><clipPath id="cbd97a2303"><path d="M 144.96875 37.683594 L 183.96875 37.683594 L 183.96875 77 L 144.96875 77 Z M 144.96875 37.683594 " clip-rule="nonzero"/></clipPath></defs><g clip-path="url(#a74b622544)"><path fill="#ff702a" d="M 176 51.328125 C 175.835938 51.492188 175.550781 51.476562 175.367188 51.289062 L 174.757812 50.679688 C 174.574219 50.492188 174.558594 50.207031 174.722656 50.042969 L 180.5625 44.167969 C 180.726562 44.003906 181.011719 44.019531 181.195312 44.207031 L 181.800781 44.816406 C 181.988281 45.003906 182.003906 45.289062 181.839844 45.453125 Z M 174.148438 49.464844 C 173.984375 49.628906 173.703125 49.613281 173.519531 49.425781 L 172.910156 48.816406 C 172.722656 48.628906 172.707031 48.34375 172.875 48.179688 L 178.710938 42.304688 C 178.875 42.140625 179.160156 42.15625 179.34375 42.34375 L 179.949219 42.953125 C 180.136719 43.136719 180.152344 43.421875 179.988281 43.589844 Z M 172.234375 47.535156 C 172.070312 47.703125 171.785156 47.683594 171.601562 47.496094 L 170.996094 46.886719 C 170.8125 46.703125 170.792969 46.417969 170.957031 46.25 L 176.796875 40.375 C 176.960938 40.210938 177.246094 40.226562 177.429688 40.414062 L 178.035156 41.023438 C 178.222656 41.210938 178.238281 41.496094 178.074219 41.660156 Z M 183.808594 44.613281 L 177.632812 38.394531 C 177.46875 38.230469 177.203125 38.230469 177.039062 38.394531 L 168.992188 46.492188 C 168.824219 46.65625 168.824219 46.925781 168.992188 47.089844 L 171.695312 49.816406 C 171.695312 49.816406 172.234375 49.710938 172.433594 49.90625 C 172.628906 50.105469 172.460938 50.585938 172.460938 50.585938 L 175.164062 53.308594 C 175.328125 53.472656 175.597656 53.476562 175.757812 53.308594 L 183.808594 45.210938 C 183.972656 45.046875 183.972656 44.777344 183.808594 44.613281 " fill-opacity="1" fill-rule="nonzero"/></g><path fill="#ff702a" d="M 171.695312 49.816406 L 157.652344 63.945312 L 158.414062 64.714844 L 172.460938 50.585938 L 171.695312 49.816406 " fill-opacity="1" fill-rule="nonzero"/><path fill="#ff702a" d="M 172.433594 49.90625 C 172.234375 49.710938 171.695312 49.816406 171.695312 49.816406 L 172.460938 50.585938 C 172.460938 50.585938 172.628906 50.105469 172.433594 49.90625 " fill-opacity="1" fill-rule="nonzero"/><path fill="#ff702a" d="M 172.433594 49.90625 C 172.234375 49.710938 171.695312 49.816406 171.695312 49.816406 L 172.460938 50.585938 C 172.460938 50.585938 172.628906 50.105469 172.433594 49.90625 " fill-opacity="1" fill-rule="nonzero"/><g clip-path="url(#04f492965f)"><path fill="#ff702a" d="M 158.613281 64.914062 L 157.453125 63.746094 C 157.289062 63.578125 157.023438 63.578125 156.855469 63.746094 L 145.179688 75.492188 C 145.015625 75.660156 145.015625 75.925781 145.179688 76.09375 L 146.339844 77.261719 C 146.507812 77.425781 146.773438 77.425781 146.9375 77.261719 L 158.613281 65.511719 C 158.777344 65.347656 158.777344 65.078125 158.613281 64.914062 " fill-opacity="1" fill-rule="nonzero"/></g><g clip-path="url(#cbd97a2303)"><path fill="#ff702a" d="M 155.613281 44.316406 L 147.398438 37.679688 L 152.160156 43.230469 C 153.359375 44.4375 154.039062 45.710938 153.394531 46.359375 C 152.75 47.007812 151.46875 46.339844 150.269531 45.132812 L 144.972656 40.113281 L 151.363281 48.59375 C 152.910156 50.148438 154.941406 50.679688 156.199219 49.953125 L 170.222656 64.085938 L 170.027344 64.285156 C 169.859375 64.453125 169.859375 64.71875 170.027344 64.882812 L 181.695312 76.644531 C 181.859375 76.808594 182.125 76.808594 182.289062 76.644531 L 183.453125 75.472656 C 183.617188 75.308594 183.617188 75.039062 183.453125 74.875 L 171.78125 63.117188 C 171.617188 62.953125 171.351562 62.953125 171.1875 63.117188 L 170.988281 63.316406 L 156.964844 49.183594 C 157.6875 47.917969 157.160156 45.871094 155.613281 44.316406 " fill-opacity="1" fill-rule="nonzero"/></g><g fill="#ff702a" fill-opacity="1"><g transform="translate(54.166692, 131.748821)"><g><path d="M 2.265625 -39.59375 L 12.109375 -39.59375 C 15.234375 -39.59375 17.554688 -38.757812 19.078125 -37.09375 C 20.609375 -35.4375 21.375 -33.007812 21.375 -29.8125 L 21.375 -9.78125 C 21.375 -6.582031 20.609375 -4.148438 19.078125 -2.484375 C 17.554688 -0.828125 15.234375 0 12.109375 0 L 2.265625 0 Z M 8.484375 -33.9375 L 8.484375 -5.65625 L 11.984375 -5.65625 C 12.972656 -5.65625 13.75 -5.9375 14.3125 -6.5 C 14.875 -7.070312 15.15625 -8.070312 15.15625 -9.5 L 15.15625 -30.09375 C 15.15625 -31.519531 14.875 -32.515625 14.3125 -33.078125 C 13.75 -33.648438 12.972656 -33.9375 11.984375 -33.9375 Z M 8.484375 -33.9375 "/></g></g></g><g fill="#ff702a" fill-opacity="1"><g transform="translate(78.146009, 131.748821)"><g><path d="M 2.265625 -39.59375 L 8.484375 -39.59375 L 8.484375 0 L 2.265625 0 Z M 2.265625 -39.59375 "/></g></g></g><g fill="#ff702a" fill-opacity="1"><g transform="translate(89.796391, 131.748821)"><g><path d="M 1.46875 -30.09375 C 1.46875 -33.300781 2.226562 -35.757812 3.75 -37.46875 C 5.28125 -39.1875 7.578125 -40.046875 10.640625 -40.046875 C 13.691406 -40.046875 15.976562 -39.1875 17.5 -37.46875 C 19.03125 -35.757812 19.796875 -33.300781 19.796875 -30.09375 L 19.796875 -28.5625 L 13.921875 -28.5625 L 13.921875 -30.484375 C 13.921875 -31.921875 13.644531 -32.929688 13.09375 -33.515625 C 12.550781 -34.097656 11.785156 -34.390625 10.796875 -34.390625 C 9.816406 -34.390625 9.050781 -34.097656 8.5 -33.515625 C 7.957031 -32.929688 7.6875 -31.921875 7.6875 -30.484375 C 7.6875 -29.128906 7.988281 -27.929688 8.59375 -26.890625 C 9.195312 -25.859375 9.953125 -24.878906 10.859375 -23.953125 C 11.765625 -23.023438 12.734375 -22.097656 13.765625 -21.171875 C 14.804688 -20.253906 15.78125 -19.25 16.6875 -18.15625 C 17.59375 -17.0625 18.347656 -15.816406 18.953125 -14.421875 C 19.554688 -13.023438 19.859375 -11.382812 19.859375 -9.5 C 19.859375 -6.289062 19.070312 -3.828125 17.5 -2.109375 C 15.9375 -0.398438 13.628906 0.453125 10.578125 0.453125 C 7.523438 0.453125 5.210938 -0.398438 3.640625 -2.109375 C 2.078125 -3.828125 1.296875 -6.289062 1.296875 -9.5 L 1.296875 -12.21875 L 7.1875 -12.21875 L 7.1875 -9.109375 C 7.1875 -7.671875 7.476562 -6.671875 8.0625 -6.109375 C 8.644531 -5.546875 9.425781 -5.265625 10.40625 -5.265625 C 11.382812 -5.265625 12.164062 -5.546875 12.75 -6.109375 C 13.332031 -6.671875 13.625 -7.671875 13.625 -9.109375 C 13.625 -10.460938 13.320312 -11.65625 12.71875 -12.6875 C 12.125 -13.726562 11.375 -14.710938 10.46875 -15.640625 C 9.5625 -16.566406 8.585938 -17.488281 7.546875 -18.40625 C 6.515625 -19.332031 5.546875 -20.34375 4.640625 -21.4375 C 3.734375 -22.53125 2.976562 -23.773438 2.375 -25.171875 C 1.769531 -26.566406 1.46875 -28.207031 1.46875 -30.09375 Z M 1.46875 -30.09375 "/></g></g></g><g fill="#ff702a" fill-opacity="1"><g transform="translate(111.852849, 131.748821)"><g><path d="M 8.484375 0 L 2.265625 0 L 2.265625 -39.59375 L 8.484375 -39.59375 L 8.484375 -22.625 L 15.546875 -22.625 L 15.546875 -39.59375 L 21.890625 -39.59375 L 21.890625 0 L 15.546875 0 L 15.546875 -16.96875 L 8.484375 -16.96875 Z M 8.484375 0 "/></g></g></g><g fill="#ff702a" fill-opacity="1"><g transform="translate(136.906709, 131.748821)"><g><path d="M 20.3125 -14.765625 L 20.3125 -9.5 C 20.3125 -6.289062 19.523438 -3.828125 17.953125 -2.109375 C 16.390625 -0.398438 14.082031 0.453125 11.03125 0.453125 C 7.976562 0.453125 5.664062 -0.398438 4.09375 -2.109375 C 2.53125 -3.828125 1.75 -6.289062 1.75 -9.5 L 1.75 -30.09375 C 1.75 -33.300781 2.53125 -35.757812 4.09375 -37.46875 C 5.664062 -39.1875 7.976562 -40.046875 11.03125 -40.046875 C 14.082031 -40.046875 16.390625 -39.1875 17.953125 -37.46875 C 19.523438 -35.757812 20.3125 -33.300781 20.3125 -30.09375 L 20.3125 -26.25 L 14.421875 -26.25 L 14.421875 -30.484375 C 14.421875 -31.921875 14.128906 -32.929688 13.546875 -33.515625 C 12.960938 -34.097656 12.179688 -34.390625 11.203125 -34.390625 C 10.222656 -34.390625 9.4375 -34.097656 8.84375 -33.515625 C 8.257812 -32.929688 7.96875 -31.921875 7.96875 -30.484375 L 7.96875 -9.109375 C 7.96875 -7.671875 8.257812 -6.671875 8.84375 -6.109375 C 9.4375 -5.546875 10.222656 -5.265625 11.203125 -5.265625 C 12.179688 -5.265625 12.960938 -5.546875 13.546875 -6.109375 C 14.128906 -6.671875 14.421875 -7.671875 14.421875 -9.109375 L 14.421875 -14.765625 Z M 20.3125 -14.765625 "/></g></g></g><g fill="#ff702a" fill-opacity="1"><g transform="translate(159.641825, 131.748821)"><g><path d="M 7.96875 -9.109375 C 7.96875 -7.671875 8.257812 -6.660156 8.84375 -6.078125 C 9.4375 -5.492188 10.222656 -5.203125 11.203125 -5.203125 C 12.179688 -5.203125 12.960938 -5.492188 13.546875 -6.078125 C 14.128906 -6.660156 14.421875 -7.671875 14.421875 -9.109375 L 14.421875 -30.484375 C 14.421875 -31.921875 14.128906 -32.929688 13.546875 -33.515625 C 12.960938 -34.097656 12.179688 -34.390625 11.203125 -34.390625 C 10.222656 -34.390625 9.4375 -34.097656 8.84375 -33.515625 C 8.257812 -32.929688 7.96875 -31.921875 7.96875 -30.484375 Z M 1.75 -30.09375 C 1.75 -33.300781 2.5625 -35.757812 4.1875 -37.46875 C 5.8125 -39.1875 8.148438 -40.046875 11.203125 -40.046875 C 14.253906 -40.046875 16.585938 -39.1875 18.203125 -37.46875 C 19.828125 -35.757812 20.640625 -33.300781 20.640625 -30.09375 L 20.640625 -9.5 C 20.640625 -6.289062 19.828125 -3.828125 18.203125 -2.109375 C 16.585938 -0.398438 14.253906 0.453125 11.203125 0.453125 C 8.148438 0.453125 5.8125 -0.398438 4.1875 -2.109375 C 2.5625 -3.828125 1.75 -6.289062 1.75 -9.5 Z M 1.75 -30.09375 "/></g></g></g><g fill="#ff702a" fill-opacity="1"><g transform="translate(182.942486, 131.748821)"><g><path d="M 11.65625 -7.296875 L 16.40625 -39.59375 L 22.109375 -39.59375 L 16 0 L 6.734375 0 L 0.625 -39.59375 L 6.90625 -39.59375 Z M 11.65625 -7.296875 "/></g></g></g><g fill="#ff702a" fill-opacity="1"><g transform="translate(206.582474, 131.748821)"><g><path d="M 8.484375 -22.90625 L 17.03125 -22.90625 L 17.03125 -17.25 L 8.484375 -17.25 L 8.484375 -5.65625 L 19.234375 -5.65625 L 19.234375 0 L 2.265625 0 L 2.265625 -39.59375 L 19.234375 -39.59375 L 19.234375 -33.9375 L 8.484375 -33.9375 Z M 8.484375 -22.90625 "/></g></g></g><g fill="#ff702a" fill-opacity="1"><g transform="translate(228.299604, 131.748821)"><g><path d="M 15.265625 0 C 15.191406 -0.257812 15.117188 -0.503906 15.046875 -0.734375 C 14.972656 -0.960938 14.90625 -1.242188 14.84375 -1.578125 C 14.789062 -1.921875 14.753906 -2.351562 14.734375 -2.875 C 14.710938 -3.40625 14.703125 -4.066406 14.703125 -4.859375 L 14.703125 -11.09375 C 14.703125 -12.9375 14.378906 -14.234375 13.734375 -14.984375 C 13.097656 -15.742188 12.066406 -16.125 10.640625 -16.125 L 8.484375 -16.125 L 8.484375 0 L 2.265625 0 L 2.265625 -39.59375 L 11.65625 -39.59375 C 14.894531 -39.59375 17.238281 -38.835938 18.6875 -37.328125 C 20.144531 -35.816406 20.875 -33.535156 20.875 -30.484375 L 20.875 -27.375 C 20.875 -23.300781 19.515625 -20.625 16.796875 -19.34375 C 18.378906 -18.695312 19.460938 -17.648438 20.046875 -16.203125 C 20.628906 -14.753906 20.921875 -12.992188 20.921875 -10.921875 L 20.921875 -4.8125 C 20.921875 -3.832031 20.957031 -2.972656 21.03125 -2.234375 C 21.113281 -1.492188 21.304688 -0.75 21.609375 0 Z M 8.484375 -33.9375 L 8.484375 -21.78125 L 10.921875 -21.78125 C 12.085938 -21.78125 13 -22.082031 13.65625 -22.6875 C 14.320312 -23.289062 14.65625 -24.382812 14.65625 -25.96875 L 14.65625 -29.859375 C 14.65625 -31.296875 14.398438 -32.332031 13.890625 -32.96875 C 13.378906 -33.613281 12.578125 -33.9375 11.484375 -33.9375 Z M 8.484375 -33.9375 "/></g></g></g><g fill="#ff702a" fill-opacity="1"><g transform="translate(251.939593, 131.748821)"><g><path d="M 8.09375 -13.125 L 0.21875 -39.59375 L 6.734375 -39.59375 L 11.484375 -21.546875 L 16.234375 -39.59375 L 22.171875 -39.59375 L 14.3125 -13.125 L 14.3125 0 L 8.09375 0 Z M 8.09375 -13.125 "/></g></g></g><g fill="#ff702a" fill-opacity="1"><g transform="translate(102.250933, 158.330141)"><g><path d="M 1.890625 -3.0625 L 0.046875 -9.234375 L 1.5625 -9.234375 L 2.671875 -5.03125 L 3.78125 -9.234375 L 5.171875 -9.234375 L 3.34375 -3.0625 L 3.34375 0 L 1.890625 0 Z M 1.890625 -3.0625 "/></g></g></g><g fill="#ff702a" fill-opacity="1"><g transform="translate(108.210562, 158.330141)"><g><path d="M 1.859375 -2.125 C 1.859375 -1.789062 1.925781 -1.554688 2.0625 -1.421875 C 2.195312 -1.285156 2.378906 -1.21875 2.609375 -1.21875 C 2.835938 -1.21875 3.019531 -1.285156 3.15625 -1.421875 C 3.289062 -1.554688 3.359375 -1.789062 3.359375 -2.125 L 3.359375 -7.109375 C 3.359375 -7.441406 3.289062 -7.675781 3.15625 -7.8125 C 3.019531 -7.945312 2.835938 -8.015625 2.609375 -8.015625 C 2.378906 -8.015625 2.195312 -7.945312 2.0625 -7.8125 C 1.925781 -7.675781 1.859375 -7.441406 1.859375 -7.109375 Z M 0.40625 -7.015625 C 0.40625 -7.765625 0.59375 -8.335938 0.96875 -8.734375 C 1.351562 -9.140625 1.898438 -9.34375 2.609375 -9.34375 C 3.316406 -9.34375 3.859375 -9.140625 4.234375 -8.734375 C 4.617188 -8.335938 4.8125 -7.765625 4.8125 -7.015625 L 4.8125 -2.21875 C 4.8125 -1.46875 4.617188 -0.890625 4.234375 -0.484375 C 3.859375 -0.0859375 3.316406 0.109375 2.609375 0.109375 C 1.898438 0.109375 1.351562 -0.0859375 0.96875 -0.484375 C 0.59375 -0.890625 0.40625 -1.46875 0.40625 -2.21875 Z M 0.40625 -7.015625 "/></g></g></g><g fill="#ff702a" fill-opacity="1"><g transform="translate(114.170192, 158.330141)"><g><path d="M 1.90625 -9.234375 L 1.90625 -2.109375 C 1.90625 -1.773438 1.972656 -1.539062 2.109375 -1.40625 C 2.253906 -1.28125 2.4375 -1.21875 2.65625 -1.21875 C 2.882812 -1.21875 3.066406 -1.28125 3.203125 -1.40625 C 3.347656 -1.539062 3.421875 -1.773438 3.421875 -2.109375 L 3.421875 -9.234375 L 4.78125 -9.234375 L 4.78125 -2.203125 C 4.78125 -1.453125 4.597656 -0.875 4.234375 -0.46875 C 3.867188 -0.0703125 3.332031 0.125 2.625 0.125 C 1.914062 0.125 1.378906 -0.0703125 1.015625 -0.46875 C 0.648438 -0.875 0.46875 -1.453125 0.46875 -2.203125 L 0.46875 -9.234375 Z M 1.90625 -9.234375 "/></g></g></g><g fill="#ff702a" fill-opacity="1"><g transform="translate(120.156188, 158.330141)"><g><path d="M 3.5625 0 C 3.539062 -0.0625 3.519531 -0.117188 3.5 -0.171875 C 3.488281 -0.222656 3.472656 -0.285156 3.453125 -0.359375 C 3.441406 -0.441406 3.429688 -0.546875 3.421875 -0.671875 C 3.421875 -0.796875 3.421875 -0.953125 3.421875 -1.140625 L 3.421875 -2.578125 C 3.421875 -3.015625 3.347656 -3.320312 3.203125 -3.5 C 3.054688 -3.675781 2.816406 -3.765625 2.484375 -3.765625 L 1.984375 -3.765625 L 1.984375 0 L 0.53125 0 L 0.53125 -9.234375 L 2.71875 -9.234375 C 3.46875 -9.234375 4.007812 -9.054688 4.34375 -8.703125 C 4.6875 -8.347656 4.859375 -7.816406 4.859375 -7.109375 L 4.859375 -6.375 C 4.859375 -5.425781 4.546875 -4.804688 3.921875 -4.515625 C 4.285156 -4.359375 4.535156 -4.109375 4.671875 -3.765625 C 4.804688 -3.429688 4.875 -3.023438 4.875 -2.546875 L 4.875 -1.125 C 4.875 -0.894531 4.882812 -0.691406 4.90625 -0.515625 C 4.925781 -0.347656 4.96875 -0.175781 5.03125 0 Z M 1.984375 -7.90625 L 1.984375 -5.078125 L 2.546875 -5.078125 C 2.816406 -5.078125 3.03125 -5.144531 3.1875 -5.28125 C 3.34375 -5.425781 3.421875 -5.679688 3.421875 -6.046875 L 3.421875 -6.96875 C 3.421875 -7.300781 3.359375 -7.539062 3.234375 -7.6875 C 3.117188 -7.832031 2.929688 -7.90625 2.671875 -7.90625 Z M 1.984375 -7.90625 "/></g></g></g><g fill="#ff702a" fill-opacity="1"><g transform="translate(126.19492, 158.330141)"><g/></g></g><g fill="#ff702a" fill-opacity="1"><g transform="translate(128.977304, 158.330141)"><g><path d="M 2.65625 -9.234375 C 3.394531 -9.234375 3.941406 -9.039062 4.296875 -8.65625 C 4.648438 -8.269531 4.828125 -7.703125 4.828125 -6.953125 L 4.828125 -5.75 C 4.828125 -5 4.648438 -4.429688 4.296875 -4.046875 C 3.941406 -3.660156 3.394531 -3.46875 2.65625 -3.46875 L 1.984375 -3.46875 L 1.984375 0 L 0.53125 0 L 0.53125 -9.234375 Z M 1.984375 -7.90625 L 1.984375 -4.78125 L 2.65625 -4.78125 C 2.882812 -4.78125 3.0625 -4.84375 3.1875 -4.96875 C 3.3125 -5.09375 3.375 -5.320312 3.375 -5.65625 L 3.375 -7.046875 C 3.375 -7.378906 3.3125 -7.601562 3.1875 -7.71875 C 3.0625 -7.84375 2.882812 -7.90625 2.65625 -7.90625 Z M 1.984375 -7.90625 "/></g></g></g><g fill="#ff702a" fill-opacity="1"><g transform="translate(134.686446, 158.330141)"><g><path d="M 5.21875 0 L 3.765625 0 L 3.515625 -1.671875 L 1.734375 -1.671875 L 1.484375 0 L 0.140625 0 L 1.625 -9.234375 L 3.75 -9.234375 Z M 1.90625 -2.921875 L 3.3125 -2.921875 L 2.609375 -7.59375 Z M 1.90625 -2.921875 "/></g></g></g><g fill="#ff702a" fill-opacity="1"><g transform="translate(140.791096, 158.330141)"><g><path d="M 0.34375 -7.015625 C 0.34375 -7.765625 0.519531 -8.335938 0.875 -8.734375 C 1.226562 -9.140625 1.765625 -9.34375 2.484375 -9.34375 C 3.191406 -9.34375 3.722656 -9.140625 4.078125 -8.734375 C 4.429688 -8.335938 4.609375 -7.765625 4.609375 -7.015625 L 4.609375 -6.65625 L 3.25 -6.65625 L 3.25 -7.109375 C 3.25 -7.441406 3.179688 -7.675781 3.046875 -7.8125 C 2.921875 -7.945312 2.742188 -8.015625 2.515625 -8.015625 C 2.285156 -8.015625 2.109375 -7.945312 1.984375 -7.8125 C 1.859375 -7.675781 1.796875 -7.441406 1.796875 -7.109375 C 1.796875 -6.796875 1.863281 -6.515625 2 -6.265625 C 2.144531 -6.023438 2.320312 -5.796875 2.53125 -5.578125 C 2.738281 -5.367188 2.960938 -5.15625 3.203125 -4.9375 C 3.453125 -4.71875 3.679688 -4.476562 3.890625 -4.21875 C 4.097656 -3.96875 4.269531 -3.679688 4.40625 -3.359375 C 4.550781 -3.035156 4.625 -2.65625 4.625 -2.21875 C 4.625 -1.46875 4.441406 -0.890625 4.078125 -0.484375 C 3.710938 -0.0859375 3.175781 0.109375 2.46875 0.109375 C 1.75 0.109375 1.207031 -0.0859375 0.84375 -0.484375 C 0.476562 -0.890625 0.296875 -1.46875 0.296875 -2.21875 L 0.296875 -2.84375 L 1.671875 -2.84375 L 1.671875 -2.125 C 1.671875 -1.789062 1.738281 -1.554688 1.875 -1.421875 C 2.007812 -1.285156 2.191406 -1.21875 2.421875 -1.21875 C 2.648438 -1.21875 2.832031 -1.285156 2.96875 -1.421875 C 3.101562 -1.554688 3.171875 -1.789062 3.171875 -2.125 C 3.171875 -2.4375 3.097656 -2.710938 2.953125 -2.953125 C 2.816406 -3.203125 2.644531 -3.429688 2.4375 -3.640625 C 2.226562 -3.859375 2 -4.070312 1.75 -4.28125 C 1.507812 -4.5 1.285156 -4.734375 1.078125 -4.984375 C 0.867188 -5.242188 0.691406 -5.535156 0.546875 -5.859375 C 0.410156 -6.191406 0.34375 -6.578125 0.34375 -7.015625 Z M 0.34375 -7.015625 "/></g></g></g><g fill="#ff702a" fill-opacity="1"><g transform="translate(146.460687, 158.330141)"><g><path d="M 0.34375 -7.015625 C 0.34375 -7.765625 0.519531 -8.335938 0.875 -8.734375 C 1.226562 -9.140625 1.765625 -9.34375 2.484375 -9.34375 C 3.191406 -9.34375 3.722656 -9.140625 4.078125 -8.734375 C 4.429688 -8.335938 4.609375 -7.765625 4.609375 -7.015625 L 4.609375 -6.65625 L 3.25 -6.65625 L 3.25 -7.109375 C 3.25 -7.441406 3.179688 -7.675781 3.046875 -7.8125 C 2.921875 -7.945312 2.742188 -8.015625 2.515625 -8.015625 C 2.285156 -8.015625 2.109375 -7.945312 1.984375 -7.8125 C 1.859375 -7.675781 1.796875 -7.441406 1.796875 -7.109375 C 1.796875 -6.796875 1.863281 -6.515625 2 -6.265625 C 2.144531 -6.023438 2.320312 -5.796875 2.53125 -5.578125 C 2.738281 -5.367188 2.960938 -5.15625 3.203125 -4.9375 C 3.453125 -4.71875 3.679688 -4.476562 3.890625 -4.21875 C 4.097656 -3.96875 4.269531 -3.679688 4.40625 -3.359375 C 4.550781 -3.035156 4.625 -2.65625 4.625 -2.21875 C 4.625 -1.46875 4.441406 -0.890625 4.078125 -0.484375 C 3.710938 -0.0859375 3.175781 0.109375 2.46875 0.109375 C 1.75 0.109375 1.207031 -0.0859375 0.84375 -0.484375 C 0.476562 -0.890625 0.296875 -1.46875 0.296875 -2.21875 L 0.296875 -2.84375 L 1.671875 -2.84375 L 1.671875 -2.125 C 1.671875 -1.789062 1.738281 -1.554688 1.875 -1.421875 C 2.007812 -1.285156 2.191406 -1.21875 2.421875 -1.21875 C 2.648438 -1.21875 2.832031 -1.285156 2.96875 -1.421875 C 3.101562 -1.554688 3.171875 -1.789062 3.171875 -2.125 C 3.171875 -2.4375 3.097656 -2.710938 2.953125 -2.953125 C 2.816406 -3.203125 2.644531 -3.429688 2.4375 -3.640625 C 2.226562 -3.859375 2 -4.070312 1.75 -4.28125 C 1.507812 -4.5 1.285156 -4.734375 1.078125 -4.984375 C 0.867188 -5.242188 0.691406 -5.535156 0.546875 -5.859375 C 0.410156 -6.191406 0.34375 -6.578125 0.34375 -7.015625 Z M 0.34375 -7.015625 "/></g></g></g><g fill="#ff702a" fill-opacity="1"><g transform="translate(152.130275, 158.330141)"><g><path d="M 2.65625 -9.234375 C 3.394531 -9.234375 3.941406 -9.039062 4.296875 -8.65625 C 4.648438 -8.269531 4.828125 -7.703125 4.828125 -6.953125 L 4.828125 -5.75 C 4.828125 -5 4.648438 -4.429688 4.296875 -4.046875 C 3.941406 -3.660156 3.394531 -3.46875 2.65625 -3.46875 L 1.984375 -3.46875 L 1.984375 0 L 0.53125 0 L 0.53125 -9.234375 Z M 1.984375 -7.90625 L 1.984375 -4.78125 L 2.65625 -4.78125 C 2.882812 -4.78125 3.0625 -4.84375 3.1875 -4.96875 C 3.3125 -5.09375 3.375 -5.320312 3.375 -5.65625 L 3.375 -7.046875 C 3.375 -7.378906 3.3125 -7.601562 3.1875 -7.71875 C 3.0625 -7.84375 2.882812 -7.90625 2.65625 -7.90625 Z M 1.984375 -7.90625 "/></g></g></g><g fill="#ff702a" fill-opacity="1"><g transform="translate(157.839417, 158.330141)"><g><path d="M 1.859375 -2.125 C 1.859375 -1.789062 1.925781 -1.554688 2.0625 -1.421875 C 2.195312 -1.285156 2.378906 -1.21875 2.609375 -1.21875 C 2.835938 -1.21875 3.019531 -1.285156 3.15625 -1.421875 C 3.289062 -1.554688 3.359375 -1.789062 3.359375 -2.125 L 3.359375 -7.109375 C 3.359375 -7.441406 3.289062 -7.675781 3.15625 -7.8125 C 3.019531 -7.945312 2.835938 -8.015625 2.609375 -8.015625 C 2.378906 -8.015625 2.195312 -7.945312 2.0625 -7.8125 C 1.925781 -7.675781 1.859375 -7.441406 1.859375 -7.109375 Z M 0.40625 -7.015625 C 0.40625 -7.765625 0.59375 -8.335938 0.96875 -8.734375 C 1.351562 -9.140625 1.898438 -9.34375 2.609375 -9.34375 C 3.316406 -9.34375 3.859375 -9.140625 4.234375 -8.734375 C 4.617188 -8.335938 4.8125 -7.765625 4.8125 -7.015625 L 4.8125 -2.21875 C 4.8125 -1.46875 4.617188 -0.890625 4.234375 -0.484375 C 3.859375 -0.0859375 3.316406 0.109375 2.609375 0.109375 C 1.898438 0.109375 1.351562 -0.0859375 0.96875 -0.484375 C 0.59375 -0.890625 0.40625 -1.46875 0.40625 -2.21875 Z M 0.40625 -7.015625 "/></g></g></g><g fill="#ff702a" fill-opacity="1"><g transform="translate(163.799048, 158.330141)"><g><path d="M 3.5625 0 C 3.539062 -0.0625 3.519531 -0.117188 3.5 -0.171875 C 3.488281 -0.222656 3.472656 -0.285156 3.453125 -0.359375 C 3.441406 -0.441406 3.429688 -0.546875 3.421875 -0.671875 C 3.421875 -0.796875 3.421875 -0.953125 3.421875 -1.140625 L 3.421875 -2.578125 C 3.421875 -3.015625 3.347656 -3.320312 3.203125 -3.5 C 3.054688 -3.675781 2.816406 -3.765625 2.484375 -3.765625 L 1.984375 -3.765625 L 1.984375 0 L 0.53125 0 L 0.53125 -9.234375 L 2.71875 -9.234375 C 3.46875 -9.234375 4.007812 -9.054688 4.34375 -8.703125 C 4.6875 -8.347656 4.859375 -7.816406 4.859375 -7.109375 L 4.859375 -6.375 C 4.859375 -5.425781 4.546875 -4.804688 3.921875 -4.515625 C 4.285156 -4.359375 4.535156 -4.109375 4.671875 -3.765625 C 4.804688 -3.429688 4.875 -3.023438 4.875 -2.546875 L 4.875 -1.125 C 4.875 -0.894531 4.882812 -0.691406 4.90625 -0.515625 C 4.925781 -0.347656 4.96875 -0.175781 5.03125 0 Z M 1.984375 -7.90625 L 1.984375 -5.078125 L 2.546875 -5.078125 C 2.816406 -5.078125 3.03125 -5.144531 3.1875 -5.28125 C 3.34375 -5.425781 3.421875 -5.679688 3.421875 -6.046875 L 3.421875 -6.96875 C 3.421875 -7.300781 3.359375 -7.539062 3.234375 -7.6875 C 3.117188 -7.832031 2.929688 -7.90625 2.671875 -7.90625 Z M 1.984375 -7.90625 "/></g></g></g><g fill="#ff702a" fill-opacity="1"><g transform="translate(169.837779, 158.330141)"><g><path d="M 0.125 -9.234375 L 4.609375 -9.234375 L 4.609375 -7.90625 L 3.09375 -7.90625 L 3.09375 0 L 1.640625 0 L 1.640625 -7.90625 L 0.125 -7.90625 Z M 0.125 -9.234375 "/></g></g></g><g fill="#ff702a" fill-opacity="1"><g transform="translate(175.3228, 158.330141)"><g/></g></g><g fill="#ff702a" fill-opacity="1"><g transform="translate(178.105185, 158.330141)"><g><path d="M 0.125 -9.234375 L 4.609375 -9.234375 L 4.609375 -7.90625 L 3.09375 -7.90625 L 3.09375 0 L 1.640625 0 L 1.640625 -7.90625 L 0.125 -7.90625 Z M 0.125 -9.234375 "/></g></g></g><g fill="#ff702a" fill-opacity="1"><g transform="translate(183.590206, 158.330141)"><g><path d="M 1.859375 -2.125 C 1.859375 -1.789062 1.925781 -1.554688 2.0625 -1.421875 C 2.195312 -1.285156 2.378906 -1.21875 2.609375 -1.21875 C 2.835938 -1.21875 3.019531 -1.285156 3.15625 -1.421875 C 3.289062 -1.554688 3.359375 -1.789062 3.359375 -2.125 L 3.359375 -7.109375 C 3.359375 -7.441406 3.289062 -7.675781 3.15625 -7.8125 C 3.019531 -7.945312 2.835938 -8.015625 2.609375 -8.015625 C 2.378906 -8.015625 2.195312 -7.945312 2.0625 -7.8125 C 1.925781 -7.675781 1.859375 -7.441406 1.859375 -7.109375 Z M 0.40625 -7.015625 C 0.40625 -7.765625 0.59375 -8.335938 0.96875 -8.734375 C 1.351562 -9.140625 1.898438 -9.34375 2.609375 -9.34375 C 3.316406 -9.34375 3.859375 -9.140625 4.234375 -8.734375 C 4.617188 -8.335938 4.8125 -7.765625 4.8125 -7.015625 L 4.8125 -2.21875 C 4.8125 -1.46875 4.617188 -0.890625 4.234375 -0.484375 C 3.859375 -0.0859375 3.316406 0.109375 2.609375 0.109375 C 1.898438 0.109375 1.351562 -0.0859375 0.96875 -0.484375 C 0.59375 -0.890625 0.40625 -1.46875 0.40625 -2.21875 Z M 0.40625 -7.015625 "/></g></g></g><g fill="#ff702a" fill-opacity="1"><g transform="translate(189.549836, 158.330141)"><g/></g></g><g fill="#ff702a" fill-opacity="1"><g transform="translate(192.33222, 158.330141)"><g><path d="M 1.984375 -5.125 L 3.84375 -5.125 L 3.84375 -3.8125 L 1.984375 -3.8125 L 1.984375 0 L 0.53125 0 L 0.53125 -9.234375 L 4.359375 -9.234375 L 4.359375 -7.90625 L 1.984375 -7.90625 Z M 1.984375 -5.125 "/></g></g></g><g fill="#ff702a" fill-opacity="1"><g transform="translate(197.606304, 158.330141)"><g><path d="M 0.53125 -9.234375 L 1.984375 -9.234375 L 1.984375 -1.3125 L 4.359375 -1.3125 L 4.359375 0 L 0.53125 0 Z M 0.53125 -9.234375 "/></g></g></g><g fill="#ff702a" fill-opacity="1"><g transform="translate(202.840836, 158.330141)"><g><path d="M 5.21875 0 L 3.765625 0 L 3.515625 -1.671875 L 1.734375 -1.671875 L 1.484375 0 L 0.140625 0 L 1.625 -9.234375 L 3.75 -9.234375 Z M 1.90625 -2.921875 L 3.3125 -2.921875 L 2.609375 -7.59375 Z M 1.90625 -2.921875 "/></g></g></g><g fill="#ff702a" fill-opacity="1"><g transform="translate(208.94548, 158.330141)"><g><path d="M 2.71875 -1.703125 L 3.828125 -9.234375 L 5.15625 -9.234375 L 3.734375 0 L 1.5625 0 L 0.140625 -9.234375 L 1.609375 -9.234375 Z M 2.71875 -1.703125 "/></g></g></g><g fill="#ff702a" fill-opacity="1"><g transform="translate(214.984206, 158.330141)"><g><path d="M 1.859375 -2.125 C 1.859375 -1.789062 1.925781 -1.554688 2.0625 -1.421875 C 2.195312 -1.285156 2.378906 -1.21875 2.609375 -1.21875 C 2.835938 -1.21875 3.019531 -1.285156 3.15625 -1.421875 C 3.289062 -1.554688 3.359375 -1.789062 3.359375 -2.125 L 3.359375 -7.109375 C 3.359375 -7.441406 3.289062 -7.675781 3.15625 -7.8125 C 3.019531 -7.945312 2.835938 -8.015625 2.609375 -8.015625 C 2.378906 -8.015625 2.195312 -7.945312 2.0625 -7.8125 C 1.925781 -7.675781 1.859375 -7.441406 1.859375 -7.109375 Z M 0.40625 -7.015625 C 0.40625 -7.765625 0.59375 -8.335938 0.96875 -8.734375 C 1.351562 -9.140625 1.898438 -9.34375 2.609375 -9.34375 C 3.316406 -9.34375 3.859375 -9.140625 4.234375 -8.734375 C 4.617188 -8.335938 4.8125 -7.765625 4.8125 -7.015625 L 4.8125 -2.21875 C 4.8125 -1.46875 4.617188 -0.890625 4.234375 -0.484375 C 3.859375 -0.0859375 3.316406 0.109375 2.609375 0.109375 C 1.898438 0.109375 1.351562 -0.0859375 0.96875 -0.484375 C 0.59375 -0.890625 0.40625 -1.46875 0.40625 -2.21875 Z M 0.40625 -7.015625 "/></g></g></g><g fill="#ff702a" fill-opacity="1"><g transform="translate(220.943831, 158.330141)"><g><path d="M 3.5625 0 C 3.539062 -0.0625 3.519531 -0.117188 3.5 -0.171875 C 3.488281 -0.222656 3.472656 -0.285156 3.453125 -0.359375 C 3.441406 -0.441406 3.429688 -0.546875 3.421875 -0.671875 C 3.421875 -0.796875 3.421875 -0.953125 3.421875 -1.140625 L 3.421875 -2.578125 C 3.421875 -3.015625 3.347656 -3.320312 3.203125 -3.5 C 3.054688 -3.675781 2.816406 -3.765625 2.484375 -3.765625 L 1.984375 -3.765625 L 1.984375 0 L 0.53125 0 L 0.53125 -9.234375 L 2.71875 -9.234375 C 3.46875 -9.234375 4.007812 -9.054688 4.34375 -8.703125 C 4.6875 -8.347656 4.859375 -7.816406 4.859375 -7.109375 L 4.859375 -6.375 C 4.859375 -5.425781 4.546875 -4.804688 3.921875 -4.515625 C 4.285156 -4.359375 4.535156 -4.109375 4.671875 -3.765625 C 4.804688 -3.429688 4.875 -3.023438 4.875 -2.546875 L 4.875 -1.125 C 4.875 -0.894531 4.882812 -0.691406 4.90625 -0.515625 C 4.925781 -0.347656 4.96875 -0.175781 5.03125 0 Z M 1.984375 -7.90625 L 1.984375 -5.078125 L 2.546875 -5.078125 C 2.816406 -5.078125 3.03125 -5.144531 3.1875 -5.28125 C 3.34375 -5.425781 3.421875 -5.679688 3.421875 -6.046875 L 3.421875 -6.96875 C 3.421875 -7.300781 3.359375 -7.539062 3.234375 -7.6875 C 3.117188 -7.832031 2.929688 -7.90625 2.671875 -7.90625 Z M 1.984375 -7.90625 "/></g></g></g></svg>