<?xml version="1.0" encoding="utf-8"?>
<!-- Generator: Adobe Illustrator 27.4.1, SVG Export Plug-In . SVG Version: 6.00 Build 0)  -->
<svg version="1.1" id="Layer_1" xmlns="http://www.w3.org/2000/svg" xmlns:xlink="http://www.w3.org/1999/xlink" x="0px" y="0px"
	 viewBox="0 0 500 106" style="enable-background:new 0 0 500 106;" xml:space="preserve">
<style type="text/css">
	.st0{fill:#FF702A;}
</style>
<g>
	<g>
		<g transform="translate(77.4167, 211.970333)">
			<g>
				<path class="st0" d="M-75.9-204.2h22.5c7.1,0,12.4,1.9,15.9,5.7c3.5,3.8,5.2,9.3,5.2,16.6v45.7c0,7.3-1.7,12.9-5.2,16.7
					c-3.5,3.8-8.8,5.7-15.9,5.7h-22.5V-204.2z M-61.7-191.3v64.6h8c2.3,0,4-0.6,5.3-1.9c1.3-1.3,1.9-3.6,1.9-6.8v-47
					c0-3.3-0.6-5.5-1.9-6.8c-1.3-1.3-3.1-2-5.3-2H-61.7z"/>
			</g>
		</g>
	</g>
	<g>
		<g transform="translate(101.396018, 211.970333)">
			<g>
				<path class="st0" d="M-45.1-204.2h14.2v90.4h-14.2V-204.2z"/>
			</g>
		</g>
	</g>
	<g>
		<g transform="translate(113.046401, 211.970333)">
			<g>
				<path class="st0" d="M-32-182.5c0-7.3,1.7-12.9,5.2-16.8c3.5-3.9,8.7-5.9,15.7-5.9c7,0,12.2,2,15.7,5.9
					c3.5,3.9,5.2,9.5,5.2,16.8v3.5H-3.6v-4.4c0-3.3-0.6-5.6-1.9-6.9c-1.2-1.3-3-2-5.2-2c-2.2,0-4,0.7-5.2,2
					c-1.2,1.3-1.9,3.6-1.9,6.9c0,3.1,0.7,5.8,2.1,8.2c1.4,2.4,3.1,4.6,5.2,6.7c2.1,2.1,4.3,4.2,6.6,6.3c2.4,2.1,4.6,4.4,6.7,6.9
					s3.8,5.3,5.2,8.5c1.4,3.2,2.1,6.9,2.1,11.2c0,7.3-1.8,12.9-5.4,16.9c-3.6,3.9-8.8,5.9-15.8,5.9c-7,0-12.3-1.9-15.8-5.9
					c-3.6-3.9-5.4-9.5-5.4-16.9v-6.2h13.4v7.1c0,3.3,0.7,5.6,2,6.8c1.3,1.3,3.1,1.9,5.4,1.9c2.2,0,4-0.6,5.4-1.9
					c1.3-1.3,2-3.6,2-6.8c0-3.1-0.7-5.8-2.1-8.2c-1.4-2.4-3.1-4.6-5.1-6.7c-2.1-2.1-4.3-4.2-6.7-6.3c-2.4-2.1-4.6-4.4-6.6-6.9
					s-3.8-5.3-5.2-8.5C-31.3-174.4-32-178.2-32-182.5z"/>
			</g>
		</g>
	</g>
	<g>
		<g transform="translate(135.102861, 211.970333)">
			<g>
				<path class="st0" d="M12.3-113.8H-1.9v-90.4h14.2v38.7h16.1v-38.7h14.5v90.4H28.4v-38.7H12.3V-113.8z"/>
			</g>
		</g>
	</g>
	<g>
		<g transform="translate(160.156722, 211.970333)">
			<g>
				<path class="st0" d="M71.5-147.5v12c0,7.3-1.8,12.9-5.4,16.9c-3.6,3.9-8.8,5.9-15.8,5.9c-7,0-12.3-1.9-15.8-5.9
					c-3.6-3.9-5.4-9.5-5.4-16.9v-47c0-7.3,1.8-12.9,5.4-16.8c3.6-3.9,8.9-5.9,15.8-5.9c7,0,12.2,2,15.8,5.9
					c3.6,3.9,5.4,9.5,5.4,16.8v8.8H58v-9.7c0-3.3-0.7-5.6-2-6.9c-1.3-1.3-3.1-2-5.4-2c-2.2,0-4,0.7-5.4,2c-1.3,1.3-2,3.6-2,6.9v48.8
					c0,3.3,0.7,5.6,2,6.8c1.4,1.3,3.1,1.9,5.4,1.9c2.2,0,4-0.6,5.4-1.9c1.3-1.3,2-3.6,2-6.8v-12.9H71.5z"/>
			</g>
		</g>
	</g>
	<g>
		<g transform="translate(182.89184, 211.970333)">
			<g>
				<path class="st0" d="M72.4-134.6c0,3.3,0.7,5.6,2,6.9c1.4,1.3,3.1,2,5.4,2c2.2,0,4-0.7,5.4-2c1.3-1.3,2-3.6,2-6.9v-48.8
					c0-3.3-0.7-5.6-2-6.9c-1.3-1.3-3.1-2-5.4-2c-2.2,0-4,0.7-5.4,2c-1.3,1.3-2,3.6-2,6.9V-134.6z M58.2-182.5
					c0-7.3,1.9-12.9,5.6-16.8c3.7-3.9,9-5.9,16-5.9c7,0,12.3,2,16,5.9c3.7,3.9,5.6,9.5,5.6,16.8v47c0,7.3-1.9,12.9-5.6,16.9
					c-3.7,3.9-9,5.9-16,5.9c-7,0-12.3-1.9-16-5.9c-3.7-3.9-5.6-9.5-5.6-16.9V-182.5z"/>
			</g>
		</g>
	</g>
	<g>
		<g transform="translate(206.192501, 211.970333)">
			<g>
				<path class="st0" d="M110.8-130.4l10.8-73.7h13l-13.9,90.4H99.5l-13.9-90.4h14.3L110.8-130.4z"/>
			</g>
		</g>
	</g>
	<g>
		<g transform="translate(229.832492, 211.970333)">
			<g>
				<path class="st0" d="M133.9-166.1h19.5v12.9h-19.5v26.5h24.5v12.9h-38.7v-90.4h38.7v12.9h-24.5V-166.1z"/>
			</g>
		</g>
	</g>
	<g>
		<g transform="translate(251.549623, 211.970333)">
			<g>
				<path class="st0" d="M177.2-113.8c-0.2-0.6-0.3-1.2-0.5-1.7c-0.2-0.5-0.3-1.2-0.5-1.9c-0.1-0.8-0.2-1.8-0.2-3
					c-0.1-1.2-0.1-2.7-0.1-4.5v-14.2c0-4.2-0.7-7.2-2.2-8.9c-1.5-1.7-3.8-2.6-7.1-2.6h-4.9v36.8h-14.2v-90.4H169
					c7.4,0,12.7,1.7,16.1,5.2c3.3,3.5,5,8.7,5,15.6v7.1c0,9.3-3.1,15.4-9.3,18.3c3.6,1.5,6.1,3.9,7.4,7.2c1.3,3.3,2,7.3,2,12.1v13.9
					c0,2.2,0.1,4.2,0.2,5.9c0.2,1.7,0.6,3.4,1.3,5.1H177.2z M161.7-191.3v27.8h5.6c2.7,0,4.7-0.7,6.2-2.1c1.5-1.4,2.3-3.9,2.3-7.5
					v-8.9c0-3.3-0.6-5.6-1.7-7.1c-1.2-1.5-3-2.2-5.5-2.2H161.7z"/>
			</g>
		</g>
	</g>
	<g>
		<g transform="translate(275.189613, 211.970333)">
			<g>
				<path class="st0" d="M191.2-143.7l-18-60.4H188l10.8,41.2l10.8-41.2h13.6l-17.9,60.4v30h-14.2V-143.7z"/>
			</g>
		</g>
	</g>
</g>
</svg>
